<?xml version="1.0" standalone="no"?>
<!DOCTYPE svg PUBLIC "-//W3C//DTD SVG 20010904//EN"
 "http://www.w3.org/TR/2001/REC-SVG-20010904/DTD/svg10.dtd">
<svg version="1.0" xmlns="http://www.w3.org/2000/svg"
 width="144.000000pt" height="144.000000pt" viewBox="0 0 144.000000 144.000000"
 preserveAspectRatio="xMidYMid meet">
<metadata>
Created by potrace 1.14, written by Peter Selinger 2001-2017
</metadata>
<g transform="translate(0.000000,144.000000) scale(0.100000,-0.100000)"
fill="#000000" stroke="none">
<path d="M495 1169 c-4 -6 -13 -8 -20 -5 -8 3 -19 -1 -25 -9 -6 -7 -25 -13
-43 -14 -18 0 -43 -3 -57 -6 -14 -4 -34 -7 -46 -6 -11 0 -30 -7 -40 -17 -11
-9 -29 -22 -40 -28 -10 -6 -20 -21 -22 -33 -2 -11 -8 -21 -13 -21 -6 0 -6 -7
0 -18 12 -22 -11 -45 -74 -77 -37 -19 -40 -23 -37 -57 3 -31 0 -36 -15 -34
-41 7 -53 -11 -49 -71 3 -31 8 -59 13 -62 4 -3 8 -13 8 -21 0 -10 8 -14 22
-13 14 2 22 -2 20 -10 -1 -7 8 -12 23 -12 14 0 29 -6 33 -12 4 -7 15 -13 23
-13 8 0 13 -4 9 -9 -5 -9 41 -60 55 -62 57 -9 72 -13 96 -27 12 -6 24 -8 28
-5 3 3 14 0 23 -8 28 -22 61 -39 78 -39 8 0 15 -9 15 -20 0 -11 7 -20 15 -20
16 0 39 -36 31 -49 -3 -5 5 -25 19 -45 13 -20 23 -36 22 -37 -11 -4 -47 -7
-132 -13 -55 -4 -125 -9 -155 -12 -109 -11 -125 -13 -157 -13 -18 -1 -33 -4
-33 -9 0 -10 1286 -9 1296 0 4 5 -6 8 -22 9 -33 0 -107 6 -174 13 -25 3 -90 8
-145 12 -55 3 -112 7 -127 8 -39 3 -44 13 -22 39 11 12 32 41 46 63 28 44 110
98 125 83 11 -11 83 0 83 13 0 5 7 16 15 24 13 13 18 13 45 -1 30 -15 32 -15
76 15 25 16 49 30 53 30 5 0 11 7 15 15 3 8 15 15 26 15 11 0 20 5 20 10 0 6
6 10 14 10 16 0 28 24 20 44 -3 7 2 16 11 20 14 5 15 14 9 49 -4 23 -6 59 -6
79 1 20 -3 40 -8 43 -6 4 -7 13 -1 23 5 9 6 32 4 50 -5 29 -9 33 -27 28 -18
-4 -24 1 -34 28 -11 29 -18 34 -55 40 -23 4 -51 16 -62 26 -19 18 -43 23 -87
18 -9 -1 -21 -12 -27 -25 -10 -21 -33 -33 -30 -15 1 4 0 12 -1 17 -1 6 -3 21
-3 35 -2 21 -8 26 -42 31 -22 4 -47 3 -55 -1 -8 -4 -35 -10 -59 -14 -24 -3
-49 -10 -56 -16 -7 -6 -17 -10 -21 -9 -5 1 -22 -3 -37 -9 -16 -7 -36 -12 -45
-12 -14 0 -14 1 1 13 24 18 11 52 -26 71 -17 8 -34 11 -37 7 -13 -20 -51 -18
-81 5 -39 29 -55 30 -68 7 -9 -16 -11 -16 -29 5 -21 24 -37 28 -47 11z m409
-678 c17 -7 17 -9 -6 -36 -13 -17 -35 -47 -48 -68 -32 -54 -59 -77 -91 -77
-32 0 -42 33 -26 88 15 51 25 62 58 62 16 0 29 5 29 10 0 6 7 10 15 10 8 0 15
5 15 10 0 11 26 12 54 1z m-202 -27 c3 -3 0 -28 -7 -55 -16 -59 -15 -54 -15
-79 0 -16 -7 -20 -34 -20 -27 0 -43 8 -70 38 -58 61 -41 102 44 102 16 0 32 5
35 10 7 11 38 14 47 4z"/>
</g>
</svg>
